<svg preserveAspectRatio="none" width="100%" height="100%" overflow="visible" style="display: block;" viewBox="0 0 77 48" fill="none" xmlns="http://www.w3.org/2000/svg">
<g id="Frame 2608989">
<path id="Vector" d="M39.9265 47.9995C60.0324 47.9995 76.3315 47.0456 76.3315 45.8689C76.3315 44.6922 60.0324 43.7383 39.9265 43.7383C19.8206 43.7383 3.52148 44.6922 3.52148 45.8689C3.52148 47.0456 19.8206 47.9995 39.9265 47.9995Z" fill="#00156F"/>
<g id="Group 98">
<path id="Vector_2" d="M71.2344 2.26235L5.33525 2.91307C3.09521 2.93519 1.298 4.7503 1.32106 6.96724L1.6744 40.9266C1.69747 43.1436 3.53208 44.9228 5.77212 44.9007L71.6713 44.25C73.9113 44.2279 75.7085 42.4127 75.6854 40.1958L75.3321 6.23641C75.309 4.01948 73.4744 2.24023 71.2344 2.26235Z" fill="#959DFB"/>
<path id="Vector_3" d="M71.7977 44.6648L7.01639 45.3323C4.78112 45.3564 2.93661 43.5486 2.91283 41.3195L2.57928 8.12618C2.5555 5.89704 4.36848 4.05734 6.60375 4.03331L71.385 3.36574C74.3214 3.33238 75.4549 4.13625 75.4787 6.36539L75.8221 40.5719C75.8459 42.801 74.0329 44.6407 71.7977 44.6648Z" fill="#E1E4FE"/>
<g id="Group">
<path id="Vector_4" d="M9.28502 26.1054L9.24676 22.0377C9.00943 22.1712 8.38769 22.2731 8.14421 22.2758L8.08303 21.6213C8.73394 21.5605 9.19571 21.3835 9.52143 21.0117L10.0287 21.0068L10.0763 26.0989L9.26476 26.1048L9.28502 26.1054Z" fill="#3B4ACA"/>
<path id="Vector_5" d="M14.2337 22.1569C14.2412 22.9102 13.8601 23.431 13.1352 24.2528L12.1681 25.3686L14.3287 25.3629L14.338 26.056L11.2436 26.084L11.2337 25.4109L12.381 24.0394C13.0651 23.2265 13.413 22.795 13.4006 22.2022C13.3941 21.7502 13.1364 21.5517 12.6798 21.5581C12.0915 21.5606 11.9189 21.8969 11.8533 22.3869L11.1267 22.2648C11.2473 21.3044 11.9188 20.9028 12.7507 20.8975C13.6639 20.8847 14.2185 21.323 14.2233 22.1666L14.2337 22.1569Z" fill="#3B4ACA"/>
<path id="Vector_6" d="M15.606 24.7398C15.6838 25.1839 15.8579 25.4603 16.4463 25.4578C16.9232 25.4519 17.3165 25.1926 17.3155 24.5599C17.3145 23.9273 16.926 23.6948 16.3275 23.697L15.8507 23.7028L15.8398 23.0599L16.1641 23.0696C16.8443 23.0497 17.2201 22.6995 17.216 22.1672C17.2077 21.7753 17.0437 21.4993 16.4959 21.503C15.948 21.5067 15.7783 21.7527 15.6837 22.1916L14.9679 22.0498C15.1269 21.1608 15.7956 20.8495 16.5768 20.8427C17.5103 20.8304 18.0235 21.2976 18.0313 22.0409C18.0391 22.7842 17.5211 23.1402 17.0605 23.2771L17.0599 23.2972C17.7354 23.4278 18.1497 23.8117 18.1569 24.5751C18.1693 25.4992 17.4815 26.1012 16.4568 26.1108C15.6351 26.1163 14.9862 25.7756 14.8715 24.8785L15.6064 24.7298L15.606 24.7398Z" fill="#3B4ACA"/>
<path id="Vector_7" d="M21.0469 25.9893L21.0329 24.7839L18.6892 24.8043L18.6867 24.2218L20.7862 20.9006L21.7906 20.8904L21.8245 24.1047L22.423 24.1025L22.4332 24.7656L21.8246 24.7674L21.8385 25.9728L21.0472 25.9793L21.0469 25.9893ZM21.0331 24.1112L21.0064 21.6603L19.44 24.1338L21.0328 24.1212L21.0331 24.1112Z" fill="#3B4ACA"/>
<path id="Vector_8" d="M23.211 20.8805L25.7677 20.8565L25.7773 21.5396L23.8292 21.5617L23.7023 23.0641C23.9313 22.8701 24.2504 22.719 24.6968 22.7122C25.4172 22.7036 26.095 23.0954 26.1004 24.2503C26.1085 25.3149 25.4177 26.0173 24.3318 26.035C23.5709 26.0424 22.871 25.7102 22.7364 24.8024L23.4715 24.6437C23.5505 25.0477 23.7535 25.3751 24.3422 25.3625C24.8191 25.3567 25.275 25.039 25.2679 24.2756C25.2586 23.5825 24.8799 23.3603 24.4233 23.3668C24.0886 23.3668 23.8098 23.5292 23.5801 23.7432L23.0292 23.5159L23.2015 20.8601L23.211 20.8805Z" fill="#3B4ACA"/>
<path id="Vector_9" d="M29.373 22.0498C29.2574 21.5142 29.0084 21.3661 28.6531 21.3756C27.8617 21.3821 27.5877 22.388 27.5902 23.3019C27.8309 23.058 28.2851 22.8005 28.7924 22.7956C29.6546 22.7912 30.1657 23.3287 30.1784 24.2428C30.1942 25.388 29.4963 25.9897 28.5327 25.991C27.1631 26.0002 26.8218 24.8855 26.8124 23.5296C26.7969 22.3744 27.1511 20.7383 28.7338 20.7253C29.3832 20.7146 29.9228 20.9818 30.1096 21.8409L29.3831 22.0501L29.373 22.0498ZM28.5317 25.3583C29.0288 25.3531 29.3438 25.0011 29.3342 24.318C29.332 23.7255 29.0869 23.447 28.5796 23.4519C28.2247 23.4514 27.8525 23.6812 27.6222 23.9153C27.6622 24.5993 27.7806 25.3761 28.5212 25.3681L28.5317 25.3583Z" fill="#3B4ACA"/>
<path id="Vector_10" d="M30.8401 25.892L32.8411 21.4734L30.406 21.501L30.3964 20.8179L33.6938 20.7859L33.6954 21.3985L31.7021 25.8977L30.8398 25.902L30.8401 25.892Z" fill="#3B4ACA"/>
<path id="Vector_11" d="M36.8046 25.8281L36.7663 21.7603C36.529 21.8938 35.9072 21.9957 35.6637 21.9985L35.6026 21.344C36.2535 21.2831 36.7152 21.1062 37.041 20.7343L37.5482 20.7294L37.5958 25.8216L36.7843 25.8275L36.8046 25.8281Z" fill="#3B4ACA"/>
<path id="Vector_12" d="M41.7552 21.8912C41.7626 22.6446 41.3816 23.1653 40.6567 23.9871L39.6896 25.1029L41.8501 25.0972L41.8594 25.7904L38.765 25.8183L38.7551 25.1453L39.9025 23.7738C40.5866 22.9608 40.9344 22.5294 40.9221 21.9366C40.9156 21.4846 40.6579 21.2861 40.2013 21.2925C39.6129 21.295 39.4404 21.6313 39.3748 22.1213L38.6482 21.9992C38.7688 21.0388 39.4403 20.6372 40.2722 20.6319C41.1854 20.619 41.74 21.0574 41.7447 21.901L41.7552 21.8912Z" fill="#3B4ACA"/>
<path id="Vector_13" d="M43.1275 24.4703C43.2053 24.9144 43.3794 25.1907 43.9678 25.1882C44.4447 25.1824 44.838 24.923 44.837 24.2904C44.836 23.6578 44.4475 23.4253 43.849 23.4275L43.3721 23.4333L43.3613 22.7903L43.6856 22.8C44.3657 22.7802 44.7416 22.4299 44.7375 21.8976C44.7292 21.5058 44.5652 21.2298 44.0173 21.2335C43.4695 21.2372 43.2997 21.4831 43.2052 21.9221L42.4894 21.7802C42.6484 20.8913 43.3171 20.5799 44.0983 20.5732C45.0318 20.5609 45.545 21.0281 45.5528 21.7714C45.5605 22.5147 45.0425 22.8707 44.582 23.0076L44.5813 23.0276C45.2569 23.1583 45.6712 23.5422 45.6784 24.3055C45.6908 25.2297 45.003 25.8317 43.9783 25.8412C43.1566 25.8468 42.5077 25.5061 42.393 24.609L43.1278 24.4602L43.1275 24.4703Z" fill="#3B4ACA"/>
<path id="Vector_14" d="M48.5664 25.7198L48.5524 24.5144L46.2088 24.5347L46.2062 23.9523L48.3057 20.6311L49.3102 20.6209L49.344 23.8352L49.9425 23.833L49.9527 24.496L49.3441 24.4979L49.3581 25.7033L48.5667 25.7098L48.5664 25.7198ZM48.5527 23.8416L48.526 21.3907L46.9595 23.8643L48.5524 23.8517L48.5527 23.8416Z" fill="#3B4ACA"/>
<path id="Vector_15" d="M50.7325 20.6031L53.2892 20.5791L53.2988 21.2622L51.3507 21.2843L51.2238 22.7867C51.4528 22.5927 51.7718 22.4416 52.2183 22.4349C52.9387 22.4263 53.6165 22.8181 53.6219 23.973C53.63 25.0376 52.9391 25.7399 51.8533 25.7577C51.0924 25.765 50.3925 25.4328 50.2579 24.5251L50.993 24.3663C51.072 24.7703 51.275 25.0977 51.8637 25.0852C52.3406 25.0794 52.7965 24.7616 52.7894 23.9983C52.7801 23.3052 52.4014 23.083 51.9448 23.0894C51.6101 23.0895 51.3313 23.2518 51.1016 23.4659L50.5507 23.2385L50.723 20.5827L50.7325 20.6031Z" fill="#3B4ACA"/>
<path id="Vector_16" d="M56.8847 21.7803C56.7691 21.2446 56.5201 21.0966 56.1648 21.1061C55.3735 21.1125 55.0994 22.1185 55.1019 23.0323C55.3427 22.7885 55.7968 22.531 56.3041 22.526C57.1663 22.5217 57.6774 23.0591 57.6901 23.9733C57.7059 25.1184 57.008 25.7201 56.0444 25.7214C54.6748 25.7307 54.3335 24.616 54.3241 23.2601C54.3086 22.1049 54.6628 20.4687 56.2455 20.4558C56.8949 20.4451 57.4345 20.7122 57.6213 21.5713L56.8948 21.7806L56.8847 21.7803ZM56.0538 25.0791C56.551 25.0739 56.866 24.7218 56.8564 24.0387C56.8542 23.4462 56.6091 23.1678 56.1018 23.1727C55.7468 23.1721 55.3747 23.402 55.1444 23.6361C55.1844 24.3201 55.3027 25.0968 56.0434 25.0888L56.0538 25.0791Z" fill="#3B4ACA"/>
<path id="Vector_17" d="M58.3616 25.6224L60.3626 21.2039L57.9275 21.2315L57.9179 20.5484L61.2153 20.5164L61.2169 21.129L59.2236 25.6281L58.3613 25.6325L58.3616 25.6224Z" fill="#3B4ACA"/>
</g>
<path id="Vector_18" d="M20.1367 7.55353L9.78384 7.65576C8.66382 7.66682 7.76521 8.57437 7.77674 9.68284L7.81339 13.2052C7.82493 14.3137 8.74223 15.2033 9.86225 15.1923L20.2151 15.09C21.3351 15.079 22.2337 14.1714 22.2222 13.0629L22.1855 9.54056C22.174 8.43209 21.2567 7.54247 20.1367 7.55353Z" fill="white"/>
<path id="Vector_19" d="M29.979 32.369L10.0338 32.5659C8.91382 32.577 8.01521 33.4845 8.02674 34.593C8.03828 35.7015 8.95558 36.5911 10.0756 36.58L30.0208 36.3831C31.1408 36.372 32.0394 35.4645 32.0279 34.356C32.0163 33.2475 31.099 32.3579 29.979 32.369Z" fill="#3B4ACA"/>
<path id="Vector_20" d="M68.27 8.83771L48.3248 9.03466C47.2048 9.04572 46.3062 9.95328 46.3178 11.0617C46.3293 12.1702 47.2466 13.0598 48.3666 13.0488L68.3118 12.8518C69.4318 12.8408 70.3304 11.9332 70.3189 10.8247C70.3073 9.71628 69.39 8.82665 68.27 8.83771Z" fill="white"/>
<path id="Vector_21" d="M63.0855 41.6951C65.1943 37.3654 68.5909 33.0249 73.4307 31.3596C69.119 33.951 66.1363 37.8884 63.0855 41.6951Z" fill="#E1E4FE"/>
<path id="Vector_22" d="M65.1095 41.0907C66.8299 37.8441 69.7594 35.0159 73.3696 33.3541C70.4201 35.7997 67.762 38.3659 65.1095 41.0907Z" fill="#E1E4FE"/>
<path id="Vector_23" d="M67.1153 41.151C67.9051 38.4597 70.5938 36.4801 73.3104 35.3486C71.2118 37.3267 68.9094 38.952 67.1153 41.151Z" fill="#E1E4FE"/>
<path id="Vector_24" d="M60.0864 32.0626L53.4245 32.1284C52.3044 32.1395 51.4058 33.047 51.4174 34.1555C51.4289 35.264 52.3462 36.1536 53.4662 36.1425L60.1281 36.0767C61.2482 36.0657 62.1468 35.1581 62.1352 34.0497C62.1237 32.9412 61.2064 32.0516 60.0864 32.0626Z" fill="#3B4ACA"/>
<path id="Vector_25" d="M63.2847 35.126C66.6226 34.8757 70.7636 35.7659 72.5406 38.6518C69.994 36.4809 66.5529 35.8608 63.2847 35.126Z" fill="#E1E4FE"/>
<path id="Vector_26" d="M63.8911 37.1117C66.5499 36.91 69.4084 37.9281 71.1617 39.9424C68.7913 38.7641 66.43 37.9358 63.8911 37.1117Z" fill="#E1E4FE"/>
</g>
</g>
</svg>
